# This file uses centimeters as units for non-parametric coordinates.

mtllib Cristal.mtl
g default
v 19.519864 65.115506 240.870776
v 11.702676 61.108955 230.917705
v 30.873488 58.712089 243.383999
v 34.409870 48.302125 235.944217
v 26.592668 44.295549 225.991182
v 15.239050 50.698974 223.477920
v 50.985801 104.917968 200.134856
v 43.168611 100.911414 190.181785
v 62.339425 98.514551 202.648079
v 65.875805 88.104588 195.208294
v 58.058606 84.098013 185.255262
v 46.704987 90.501436 182.742000
v 66.592926 109.776740 177.068224
vt 0.175895 0.108397
vt 0.151832 0.729199
vt 0.713101 0.690954
vt 0.761951 0.791626
vt 0.157070 0.228843
vt 0.727487 0.294053
vt 0.137323 0.480474
vt 0.142936 0.353580
vt 0.694024 0.390869
vt 0.680130 0.489803
vt 0.141038 0.606681
vt 0.686279 0.590103
vt 0.922431 0.499306
vt 0.779950 0.199689
vt 0.163490 0.845209
vn -0.647591 0.731243 0.214263
vn -0.647591 0.731243 0.214263
vn -0.647591 0.731243 0.214263
vn -0.647591 0.731243 0.214263
vn 0.186181 0.626999 0.756445
vn 0.186181 0.626999 0.756445
vn 0.186181 0.626999 0.756445
vn 0.186181 0.626999 0.756445
vn 0.833771 -0.104244 0.542180
vn 0.833771 -0.104244 0.542180
vn 0.833771 -0.104244 0.542180
vn 0.833771 -0.104244 0.542180
vn 0.647592 -0.731243 -0.214263
vn 0.647592 -0.731243 -0.214263
vn 0.647592 -0.731243 -0.214263
vn 0.647592 -0.731243 -0.214263
vn -0.186180 -0.626999 -0.756445
vn -0.186180 -0.626999 -0.756445
vn -0.186180 -0.626999 -0.756445
vn -0.186180 -0.626999 -0.756445
vn -0.833771 0.104244 -0.542180
vn -0.833771 0.104244 -0.542180
vn -0.833771 0.104244 -0.542180
vn -0.833771 0.104244 -0.542180
vn -0.385895 0.920085 -0.067293
vn -0.385895 0.920085 -0.067293
vn -0.385895 0.920085 -0.067293
vn 0.371412 0.825402 0.425164
vn 0.371412 0.825402 0.425164
vn 0.371412 0.825402 0.425164
vn 0.959612 0.161222 0.230549
vn 0.959612 0.161222 0.230549
vn 0.959612 0.161222 0.230549
vn 0.790507 -0.408275 -0.456519
vn 0.790507 -0.408275 -0.456519
vn 0.790507 -0.408275 -0.456519
vn 0.033200 -0.313592 -0.948977
vn 0.033200 -0.313592 -0.948977
vn 0.033200 -0.313592 -0.948977
vn -0.554999 0.350590 -0.754363
vn -0.554999 0.350590 -0.754363
vn -0.554999 0.350590 -0.754363
s off
g Cristal_A_5 Cristaux
usemtl initialShadingGroup
f 2/8/1 1/5/2 7/6/3 8/9/4
f 1/5/5 3/1/6 9/14/7 7/6/8
f 3/15/9 4/2/10 10/3/11 9/4/12
f 4/2/13 5/11/14 11/12/15 10/3/16
f 5/11/17 6/7/18 12/10/19 11/12/20
f 6/7/21 2/8/22 8/9/23 12/10/24
f 8/9/25 7/6/26 13/13/27
f 7/6/28 9/14/29 13/13/30
f 9/4/31 10/3/32 13/13/33
f 10/3/34 11/12/35 13/13/36
f 11/12/37 12/10/38 13/13/39
f 12/10/40 8/9/41 13/13/42
g default
v -21.868883 30.113234 256.882190
v -36.997041 21.887165 252.050644
v -7.932150 30.505017 245.680058
v -9.123552 22.670683 229.646483
v -24.251676 14.444570 224.814963
v -38.188447 14.052808 236.017062
v -51.628908 105.050307 222.477802
v -66.757065 96.824234 217.646254
v -37.692175 105.442090 211.275669
v -38.883582 97.607756 195.242094
v -54.011700 89.381645 190.410575
v -67.948471 88.989881 201.612673
v -64.236662 125.962808 193.246233
vt 0.151840 0.729246
vt 0.141030 0.606722
vt 0.686268 0.590098
vt 0.713099 0.690946
vt 0.163528 0.845259
vt 0.761966 0.791611
vt 0.142914 0.353605
vt 0.157048 0.228862
vt 0.727476 0.294052
vt 0.694008 0.390866
vt 0.137305 0.480507
vt 0.680113 0.489800
vt 0.922419 0.499299
vt 0.175876 0.108415
vt 0.779940 0.199688
vn -0.411436 0.240256 0.879203
vn -0.411436 0.240256 0.879203
vn -0.411436 0.240256 0.879203
vn -0.411436 0.240256 0.879203
vn 0.526817 0.518451 0.673552
vn 0.526817 0.518451 0.673552
vn 0.526817 0.518451 0.673552
vn 0.526817 0.518451 0.673552
vn 0.938251 0.278195 -0.205650
vn 0.938251 0.278195 -0.205650
vn 0.938251 0.278195 -0.205650
vn 0.938251 0.278195 -0.205650
vn 0.411437 -0.240256 -0.879202
vn 0.411437 -0.240256 -0.879202
vn 0.411437 -0.240256 -0.879202
vn 0.411437 -0.240256 -0.879202
vn -0.526816 -0.518451 -0.673553
vn -0.526816 -0.518451 -0.673553
vn -0.526816 -0.518451 -0.673553
vn -0.526816 -0.518451 -0.673553
vn -0.938251 -0.278195 0.205651
vn -0.938251 -0.278195 0.205651
vn -0.938251 -0.278195 0.205651
vn -0.938251 -0.278195 0.205651
vn -0.515722 0.575831 0.634388
vn -0.515722 0.575831 0.634388
vn -0.515722 0.575831 0.634388
vn 0.336482 0.828514 0.447598
vn 0.336482 0.828514 0.447598
vn 0.336482 0.828514 0.447598
vn 0.710184 0.610293 -0.350973
vn 0.710184 0.610293 -0.350973
vn 0.710184 0.610293 -0.350973
vn 0.231685 0.139388 -0.962753
vn 0.231685 0.139388 -0.962753
vn 0.231685 0.139388 -0.962753
vn -0.620521 -0.113294 -0.775963
vn -0.620521 -0.113294 -0.775963
vn -0.620521 -0.113294 -0.775963
vn -0.994223 0.104930 0.022608
vn -0.994223 0.104930 0.022608
vn -0.994223 0.104930 0.022608
s off
g Cristaux Cristal_A_4
usemtl initialShadingGroup
f 15/23/43 14/29/44 20/30/45 21/24/46
f 14/20/47 16/16/48 22/19/49 20/21/50
f 16/16/51 17/17/52 23/18/53 22/19/54
f 17/17/55 18/26/56 24/27/57 23/18/58
f 18/26/59 19/22/60 25/25/61 24/27/62
f 19/22/63 15/23/64 21/24/65 25/25/66
f 21/24/67 20/30/68 26/28/69
f 20/21/70 22/19/71 26/28/72
f 22/19/73 23/18/74 26/28/75
f 23/18/76 24/27/77 26/28/78
f 24/27/79 25/25/80 26/28/81
f 25/25/82 21/24/83 26/28/84
g default
v 22.733581 58.638340 215.256083
v 16.980639 56.076218 212.615768
v 28.323572 54.740115 215.689676
v 28.160607 48.279786 213.482995
v 22.407664 45.717659 210.842703
v 16.817669 49.615881 210.409089
v 32.184911 68.803481 184.798443
v 26.431968 66.241358 182.158129
v 37.774902 64.905256 185.232037
v 37.611935 58.444927 183.025354
v 31.858994 55.882801 180.385063
v 26.268999 59.781022 179.951449
v 35.647595 66.242626 170.907805
vt 0.175895 0.108398
vt 0.151833 0.729199
vt 0.713101 0.690954
vt 0.761952 0.791626
vt 0.157069 0.228843
vt 0.727487 0.294053
vt 0.137323 0.480474
vt 0.142936 0.353581
vt 0.694024 0.390869
vt 0.680130 0.489803
vt 0.141038 0.606681
vt 0.686279 0.590102
vt 0.922431 0.499305
vt 0.779949 0.199688
vt 0.163491 0.845209
vn -0.458838 0.875783 0.149907
vn -0.458838 0.875783 0.149907
vn -0.458838 0.875783 0.149907
vn -0.458838 0.875783 0.149907
vn 0.500172 0.762820 0.409797
vn 0.500172 0.762820 0.409797
vn 0.500172 0.762820 0.409797
vn 0.500172 0.762820 0.409797
vn 0.959008 -0.112963 0.259889
vn 0.959008 -0.112963 0.259889
vn 0.959008 -0.112963 0.259889
vn 0.959008 -0.112963 0.259889
vn 0.458838 -0.875783 -0.149907
vn 0.458838 -0.875783 -0.149907
vn 0.458838 -0.875783 -0.149907
vn 0.458838 -0.875783 -0.149907
vn -0.500171 -0.762820 -0.409798
vn -0.500171 -0.762820 -0.409798
vn -0.500171 -0.762820 -0.409798
vn -0.500171 -0.762820 -0.409798
vn -0.959008 0.112963 -0.259889
vn -0.959008 0.112963 -0.259889
vn -0.959008 0.112963 -0.259889
vn -0.959008 0.112963 -0.259889
vn -0.298630 0.922514 -0.244516
vn -0.298630 0.922514 -0.244516
vn -0.298630 0.922514 -0.244516
vn 0.572428 0.819911 -0.008462
vn 0.572428 0.819911 -0.008462
vn 0.572428 0.819911 -0.008462
vn 0.989185 0.024447 -0.144623
vn 0.989185 0.024447 -0.144623
vn 0.989185 0.024447 -0.144623
vn 0.534886 -0.668415 -0.516836
vn 0.534886 -0.668415 -0.516836
vn 0.534886 -0.668415 -0.516836
vn -0.336173 -0.565812 -0.752891
vn -0.336173 -0.565812 -0.752891
vn -0.336173 -0.565812 -0.752891
vn -0.752929 0.229654 -0.616731
vn -0.752929 0.229654 -0.616731
vn -0.752929 0.229654 -0.616731
s off
g Cristaux Cristal_A_3
usemtl initialShadingGroup
f 28/38/85 27/35/86 33/36/87 34/39/88
f 27/35/89 29/31/90 35/44/91 33/36/92
f 29/45/93 30/32/94 36/33/95 35/34/96
f 30/32/97 31/41/98 37/42/99 36/33/100
f 31/41/101 32/37/102 38/40/103 37/42/104
f 32/37/105 28/38/106 34/39/107 38/40/108
f 34/39/109 33/36/110 39/43/111
f 33/36/112 35/44/113 39/43/114
f 35/34/115 36/33/116 39/43/117
f 36/33/118 37/42/119 39/43/120
f 37/42/121 38/40/122 39/43/123
f 38/40/124 34/39/125 39/43/126
g default
v -19.440637 58.695981 209.055028
v -24.741247 54.398659 209.316995
v -14.843824 58.145651 204.035208
v -15.547604 53.297995 199.277395
v -20.848197 49.000663 199.539373
v -25.445028 49.550995 204.559181
v -37.439084 79.750933 190.264859
v -42.739694 75.453609 190.526825
v -32.842270 79.200602 185.245039
v -33.546052 74.352947 180.487226
v -38.846644 70.055616 180.749203
v -43.443474 70.605947 185.769012
v -45.047310 82.980227 178.298886
vt 0.141024 0.606729
vt 0.137300 0.480513
vt 0.680117 0.489796
vt 0.686272 0.590093
vt 0.151848 0.729255
vt 0.713106 0.690940
vt 0.157042 0.228867
vt 0.175872 0.108419
vt 0.779929 0.199680
vt 0.727466 0.294045
vt 0.142908 0.353611
vt 0.694004 0.390862
vt 0.922422 0.499281
vt 0.761977 0.791603
vt 0.163539 0.845267
vn -0.329145 0.456383 0.826667
vn -0.329145 0.456383 0.826667
vn -0.329145 0.456383 0.826667
vn -0.329145 0.456383 0.826667
vn 0.507652 0.773180 0.380109
vn 0.507652 0.773180 0.380109
vn 0.507652 0.773180 0.380109
vn 0.507652 0.773180 0.380109
vn 0.836795 0.316796 -0.446558
vn 0.836795 0.316796 -0.446558
vn 0.836795 0.316796 -0.446558
vn 0.836795 0.316796 -0.446558
vn 0.329145 -0.456383 -0.826667
vn 0.329145 -0.456383 -0.826667
vn 0.329145 -0.456383 -0.826667
vn 0.329145 -0.456383 -0.826667
vn -0.507652 -0.773179 -0.380110
vn -0.507652 -0.773179 -0.380110
vn -0.507652 -0.773179 -0.380110
vn -0.507652 -0.773179 -0.380110
vn -0.836795 -0.316796 0.446558
vn -0.836795 -0.316796 0.446558
vn -0.836795 -0.316796 0.446558
vn -0.836795 -0.316796 0.446558
vn -0.523913 0.677684 0.516004
vn -0.523913 0.677684 0.516004
vn -0.523913 0.677684 0.516004
vn 0.236140 0.965427 0.110400
vn 0.236140 0.965427 0.110400
vn 0.236140 0.965427 0.110400
vn 0.535097 0.550899 -0.640454
vn 0.535097 0.550900 -0.640454
vn 0.535097 0.550899 -0.640454
vn 0.074005 -0.151371 -0.985703
vn 0.074005 -0.151371 -0.985703
vn 0.074005 -0.151371 -0.985703
vn -0.686050 -0.439115 -0.580098
vn -0.686050 -0.439115 -0.580098
vn -0.686050 -0.439115 -0.580098
vn -0.985007 -0.024585 0.170754
vn -0.985007 -0.024585 0.170754
vn -0.985007 -0.024585 0.170754
s off
g Cristaux Cristal_A_2
usemtl initialShadingGroup
f 41/60/127 40/50/128 46/51/129 47/59/130
f 40/50/131 42/46/132 48/49/133 46/51/134
f 42/46/135 43/47/136 49/48/137 48/49/138
f 43/47/139 44/56/140 50/57/141 49/48/142
f 44/56/143 45/52/144 51/55/145 50/57/146
f 45/52/147 41/53/148 47/54/149 51/55/150
f 47/59/151 46/51/152 52/58/153
f 46/51/154 48/49/155 52/58/156
f 48/49/157 49/48/158 52/58/159
f 49/48/160 50/57/161 52/58/162
f 50/57/163 51/55/164 52/58/165
f 51/55/166 47/54/167 52/58/168
g default
v 19.885350 52.983652 146.402691
v -19.885334 52.983659 146.402691
v -39.770681 18.543961 146.835496
v -19.885345 -15.895745 147.268300
v 19.885339 -15.895747 147.268300
v 39.770681 18.543955 146.835496
v 19.885350 54.763676 239.002642
v -19.885334 54.763683 239.002642
v -39.770681 20.323983 239.435447
v 39.770681 20.323978 239.435447
v 0.000000 32.881983 58.857482
vt 0.473093 0.617623
vt 0.572262 0.791756
vt 0.304149 0.896636
vt 0.222853 0.691608
vt 0.722207 0.462696
vt 0.771360 0.858418
vt 0.447963 0.230077
vt 0.433120 0.429101
vt 0.168915 0.474007
vt 0.155287 0.253238
vt 0.603897 0.087821
vt 0.815177 0.086535
vn 0.000000 0.997169 -0.075197
vn 0.000000 0.997169 -0.075197
vn 0.000000 0.999815 -0.019219
vn 0.000000 0.999815 -0.019219
vn -0.862163 0.496545 -0.100588
vn -0.863577 0.497603 -0.081396
vn -0.866021 0.499916 -0.009610
vn -0.866021 0.499916 -0.009610
vn 0.863577 0.497603 -0.081396
vn 0.862163 0.496545 -0.100588
vn 0.866021 0.499916 -0.009610
vn 0.866021 0.499916 -0.009610
vn 0.000000 0.974637 -0.223791
vn -0.828498 0.474637 -0.297172
vn -0.780659 -0.456118 -0.427233
vn -0.780659 -0.456118 -0.427233
vn -0.780659 -0.456118 -0.427233
vn -0.000000 -0.875580 -0.483072
vn -0.000000 -0.875580 -0.483072
vn -0.000000 -0.875580 -0.483072
vn 0.780658 -0.456118 -0.427234
vn 0.780659 -0.456118 -0.427234
vn 0.780658 -0.456118 -0.427234
vn 0.828498 0.474637 -0.297172
s 1
g Cristaux Cristal_BIG
usemtl initialShadingGroup
f 53/68/169 54/61/170 60/64/171 59/69/172
s 2
f 54/61/173 55/62/174 61/63/175 60/64/176
s 3
f 58/67/177 53/68/178 59/69/179 62/70/180
s 1
f 54/61/170 53/68/169 63/65/181
s 2
f 55/62/174 54/61/173 63/65/182
s off
f 56/66/183 55/62/184 63/65/185
f 57/71/186 56/72/187 63/65/188
f 58/67/189 57/71/190 63/65/191
s 3
f 53/68/178 58/67/177 63/65/192
g default
v -35.463493 30.062132 185.972159
v -46.973337 22.404241 185.839002
v -23.611512 24.811885 181.165565
v -23.269371 11.903774 176.225900
v -34.779194 4.245872 176.092785
v -46.631200 9.496113 180.899345
v -50.245835 53.356032 124.077768
v -61.755679 45.698136 123.944613
v -38.393854 48.105785 119.271174
v -38.051717 35.197673 114.331509
v -49.561536 27.539773 114.198394
v -61.413541 32.790012 119.004954
v -55.574405 49.383750 95.394595
vt 0.141024 0.606729
vt 0.137300 0.480513
vt 0.680117 0.489796
vt 0.686272 0.590093
vt 0.151848 0.729255
vt 0.713106 0.690940
vt 0.157042 0.228867
vt 0.175872 0.108419
vt 0.779929 0.199680
vt 0.727466 0.294045
vt 0.142908 0.353611
vt 0.694004 0.390862
vt 0.922422 0.499281
vt 0.761977 0.791603
vt 0.163539 0.845267
vn -0.509234 0.758304 0.407008
vn -0.509234 0.758304 0.407008
vn -0.509234 0.758304 0.407008
vn -0.509234 0.758304 0.407008
vn 0.466370 0.858849 0.211843
vn 0.466370 0.858849 0.211843
vn 0.466370 0.858849 0.211843
vn 0.466370 0.858849 0.211843
vn 0.975603 0.100545 -0.195165
vn 0.975603 0.100545 -0.195165
vn 0.975603 0.100545 -0.195165
vn 0.975603 0.100545 -0.195165
vn 0.509235 -0.758304 -0.407008
vn 0.509235 -0.758304 -0.407008
vn 0.509235 -0.758304 -0.407008
vn 0.509235 -0.758304 -0.407008
vn -0.466370 -0.858849 -0.211844
vn -0.466370 -0.858849 -0.211844
vn -0.466370 -0.858849 -0.211844
vn -0.466370 -0.858849 -0.211844
vn -0.975603 -0.100544 0.195165
vn -0.975603 -0.100544 0.195165
vn -0.975603 -0.100544 0.195165
vn -0.975603 -0.100544 0.195165
vn -0.553791 0.832563 -0.012421
vn -0.553791 0.832563 -0.012421
vn -0.553791 0.832563 -0.012421
vn 0.332340 0.923888 -0.189688
vn 0.332340 0.923888 -0.189688
vn 0.332340 0.923888 -0.189688
vn 0.794871 0.235128 -0.559370
vn 0.794871 0.235128 -0.559370
vn 0.794871 0.235128 -0.559370
vn 0.371274 -0.544955 -0.751784
vn 0.371274 -0.544955 -0.751784
vn 0.371274 -0.544955 -0.751784
vn -0.514858 -0.636279 -0.574517
vn -0.514858 -0.636279 -0.574517
vn -0.514858 -0.636279 -0.574517
vn -0.977388 0.052481 -0.204837
vn -0.977388 0.052481 -0.204837
vn -0.977388 0.052481 -0.204837
s off
g Cristaux Cristal_A_1
usemtl initialShadingGroup
f 65/87/193 64/77/194 70/78/195 71/86/196
f 64/77/197 66/73/198 72/76/199 70/78/200
f 66/73/201 67/74/202 73/75/203 72/76/204
f 67/74/205 68/83/206 74/84/207 73/75/208
f 68/83/209 69/79/210 75/82/211 74/84/212
f 69/79/213 65/80/214 71/81/215 75/82/216
f 71/86/217 70/78/218 76/85/219
f 70/78/220 72/76/221 76/85/222
f 72/76/223 73/75/224 76/85/225
f 73/75/226 74/84/227 76/85/228
f 74/84/229 75/82/230 76/85/231
f 75/82/232 71/81/233 76/85/234
