# This file uses centimeters as units for non-parametric coordinates.

mtllib Throne.mtl
g default
v 19.817554 53.633783 221.217170
v 19.817554 53.633783 184.117726
v -19.803659 53.633790 184.117726
v -19.803659 53.633790 221.217170
v 16.488629 56.707012 219.234700
v 16.488629 56.707012 192.053470
v -16.474730 56.707017 192.053470
v -16.474730 56.707017 219.234700
v 16.488633 58.010746 219.234700
v 15.229768 59.314221 218.704990
v 15.229768 59.314221 194.173885
v 16.488633 58.010746 192.053470
v -15.215856 59.314226 194.173885
v -16.474720 58.010752 192.053470
v -15.215856 59.314226 218.704990
v -16.474720 58.010752 219.234700
v 19.817554 55.431264 221.217170
v 18.585464 56.707011 220.698723
v 19.817554 55.431264 184.117726
v 18.585464 56.707011 186.193046
v -19.803659 55.431270 184.117726
v -18.571569 56.707017 186.193046
v -19.803659 55.431270 221.217170
v -18.571569 56.707017 220.698723
v 5.639229 67.557115 215.053399
v 8.886184 74.033061 215.053398
v 8.886183 74.033061 201.190681
v 5.740092 74.032645 215.053398
v 5.740092 74.032642 201.190681
v 9.029830 67.557115 201.190680
v 9.029830 67.557115 215.053398
v -5.187624 67.557115 215.035451
v -8.434579 74.033065 201.220564
v -8.434580 74.033065 215.083282
v -5.288486 74.032642 201.220564
v -5.268315 74.015171 215.073713
v -8.578225 67.557119 215.083282
v -8.578225 67.557119 201.190680
v 5.706473 74.003526 208.593329
v 8.886184 74.033061 211.031805
v 9.029827 67.557119 211.031803
v -8.578225 67.557119 211.061688
v -8.434580 74.033065 211.061688
v -5.254865 74.003526 208.607262
v 6.510060 82.749400 209.000638
v 6.510062 82.749400 215.441210
v -6.058451 82.749400 215.422133
v -6.058451 82.749400 208.981561
v -13.131757 59.314225 198.189505
v -13.131757 59.314225 212.500818
v -13.131757 59.314225 216.598214
v -6.152905 59.314224 216.576479
v 6.614205 59.314222 216.567758
v 13.583361 59.314221 216.567758
v 13.583361 59.314221 212.470371
v 13.583299 59.314220 198.189505
v 3.207386 89.259399 214.315660
v 1.573377 90.178308 214.049206
v 1.612744 90.178308 211.944247
v 3.198971 89.293705 211.583985
v -2.747381 89.293566 211.572948
v -1.160920 90.178308 211.930839
v -1.121766 90.178308 214.036305
v -2.755736 89.259499 214.304647
v -4.236456 68.462215 201.190680
v -5.070292 69.258362 201.194950
v -4.798864 69.393633 208.590172
v -3.944170 68.619832 208.588383
v 5.521886 69.258337 201.190681
v 4.687968 68.462197 201.190681
v 4.395784 68.619817 208.599946
v 5.250481 69.393648 208.599919
vt 0.023088 0.020344
vt 0.037940 0.034688
vt 0.037940 0.381590
vt 0.023088 0.395933
vt 0.031904 0.020344
vt 0.341611 0.020344
vt 0.317451 0.034688
vt 0.341611 0.395933
vt 0.317451 0.381590
vt 0.031904 0.395933
vt 0.031904 0.005489
vt 0.341611 0.005489
vt 0.356466 0.020344
vt 0.356466 0.395933
vt 0.341611 0.410788
vt 0.031904 0.410788
vt 0.008233 0.395934
vt 0.008233 0.020344
vt 0.653470 0.028885
vt 0.664205 0.039253
vt 0.664205 0.351940
vt 0.653470 0.362309
vt 0.659842 0.028885
vt 0.972045 0.028885
vt 0.954580 0.039253
vt 0.972045 0.362309
vt 0.954580 0.351940
vt 0.659842 0.362309
vt 0.659842 0.013758
vt 0.972045 0.013758
vt 0.987171 0.028885
vt 0.987171 0.362309
vt 0.972045 0.377435
vt 0.659842 0.377435
vt 0.638344 0.362309
vt 0.638344 0.028885
vt 0.905263 0.056898
vt 0.676525 0.056898
vt 0.905263 0.334295
vt 0.676525 0.334295
vt 0.830994 0.909597
vt 0.829164 0.802790
vt 0.863309 0.802204
vt 0.865052 0.882541
vt 0.760693 0.910802
vt 0.758862 0.803995
vt 0.873076 0.506375
vt 0.912021 0.506375
vt 0.910371 0.580758
vt 0.874235 0.580754
vt 0.389566 0.962989
vt 0.387021 0.743617
vt 0.528653 0.742436
vt 0.526847 0.962190
vt 0.658756 0.928166
vt 0.656100 0.773174
vt 0.884275 0.411697
vt 0.964323 0.411697
vt 0.422996 0.114110
vt 0.422995 0.220281
vt 0.390909 0.194499
vt 0.391248 0.119960
vt 0.497379 0.107917
vt 0.497379 0.221296
vt 0.586307 0.393428
vt 0.585349 0.636550
vt 0.433621 0.635987
vt 0.429169 0.392585
vt 0.592057 0.073446
vt 0.592057 0.237826
vt 0.748719 0.506375
vt 0.709774 0.506375
vt 0.657472 0.411697
vt 0.737631 0.411697
vt 0.142922 0.652818
vt 0.139084 0.575344
vt 0.232843 0.573584
vt 0.231989 0.651296
vt 0.831742 0.953244
vt 0.865887 0.952659
vt 0.761440 0.954449
vt 0.659518 0.972636
vt 0.497379 0.267488
vt 0.592057 0.284889
vt 0.422995 0.263668
vt 0.391045 0.259752
vt 0.747792 0.580553
vt 0.244791 0.798976
vt 0.129479 0.794623
vt 0.128347 0.709176
vt 0.248893 0.707758
vt 0.071945 0.818526
vt 0.056307 0.723217
vt 0.883079 0.680875
vt 0.738716 0.680875
vt 0.300829 0.824962
vt 0.320476 0.726184
vt 0.711424 0.580758
vt 0.845144 0.755649
vt 0.826376 0.766204
vt 0.795419 0.766204
vt 0.776651 0.755650
vt 0.164777 0.899509
vt 0.143724 0.896143
vt 0.151808 0.867764
vt 0.168568 0.878919
vt 0.217127 0.873987
vt 0.197911 0.881510
vt 0.217641 0.904789
vt 0.196359 0.903292
vt 0.125835 0.881319
vt 0.242599 0.888248
vt 0.402965 0.392444
vt 0.408152 0.635929
vt 0.562813 0.743191
vt 0.561007 0.962982
vt 0.241499 0.659283
vt 0.133746 0.661046
vt 0.043894 0.476251
vt 0.324147 0.470914
vt 0.130612 0.583962
vt 0.093291 0.567318
vt 0.241639 0.581872
vt 0.278292 0.563804
vt 0.277223 0.631682
vt 0.244252 0.631892
vt 0.129927 0.634045
vt 0.096973 0.635105
vn -0.000000 0.376484 0.926423
vn -0.000000 0.376484 0.926423
vn -0.000000 0.376484 0.926423
vn -0.000000 0.376484 0.926423
vn 0.719308 0.694691 0.000000
vn 0.719308 0.694691 0.000000
vn 0.719308 0.694691 0.000000
vn 0.719308 0.694691 0.000000
vn 0.000000 0.851909 -0.523691
vn 0.000000 0.851909 -0.523691
vn 0.000000 0.851909 -0.523691
vn 0.000000 0.851909 -0.523691
vn -0.719307 0.694692 -0.000000
vn -0.719307 0.694692 -0.000000
vn -0.719307 0.694692 -0.000000
vn -0.719307 0.694692 -0.000000
vn 0.000000 1.000000 0.000000
vn 0.000000 1.000000 0.000000
vn 0.000000 1.000000 0.000000
vn 0.000000 1.000000 0.000000
vn 1.000000 -0.000000 0.000000
vn 1.000000 -0.000000 0.000000
vn 1.000000 -0.000000 0.000000
vn 1.000000 -0.000000 0.000000
vn 0.000000 0.000000 -1.000000
vn 0.000000 0.000000 -1.000000
vn 0.000000 0.000000 -1.000000
vn 0.000000 0.000000 -1.000000
vn -1.000000 0.000000 -0.000000
vn -1.000000 0.000000 -0.000000
vn -1.000000 0.000000 -0.000000
vn -1.000000 0.000000 -0.000000
vn -0.000000 0.000000 1.000000
vn -0.000000 0.000000 1.000000
vn -0.000000 0.000000 1.000000
vn -0.000000 0.000000 1.000000
vn -0.000000 0.376486 0.926422
vn -0.000000 0.376486 0.926422
vn -0.000000 0.376486 0.926422
vn -0.000000 0.376486 0.926422
vn 0.719308 0.694692 0.000000
vn 0.719308 0.694692 0.000000
vn 0.719308 0.694692 0.000000
vn 0.719308 0.694692 0.000000
vn 0.000000 0.851910 -0.523689
vn 0.000000 0.851910 -0.523689
vn 0.000000 0.851910 -0.523689
vn 0.000000 0.851910 -0.523689
vn -0.719307 0.694692 -0.000000
vn -0.719307 0.694692 -0.000000
vn -0.719307 0.694692 -0.000000
vn -0.719307 0.694692 -0.000000
vn 1.000000 -0.000000 0.000000
vn 1.000000 -0.000000 0.000000
vn 1.000000 -0.000000 0.000000
vn 1.000000 -0.000000 0.000000
vn 0.000000 0.000000 -1.000000
vn 0.000000 0.000000 -1.000000
vn 0.000000 0.000000 -1.000000
vn 0.000000 0.000000 -1.000000
vn -1.000000 0.000000 -0.000000
vn -1.000000 0.000000 -0.000000
vn -1.000000 0.000000 -0.000000
vn -1.000000 0.000000 -0.000000
vn -0.000000 0.000000 1.000000
vn -0.000000 0.000000 1.000000
vn -0.000000 0.000000 1.000000
vn -0.000000 0.000000 1.000000
vn 0.000000 1.000000 0.000000
vn 0.000000 1.000000 0.000000
vn 0.000000 1.000000 0.000000
vn 0.000000 1.000000 0.000000
vn 0.000000 1.000000 0.000000
vn 0.000000 1.000000 0.000000
vn 0.000000 1.000000 0.000000
vn 0.000000 1.000000 0.000000
vn 0.000000 1.000000 0.000000
vn 0.000000 1.000000 0.000000
vn 0.000000 1.000000 0.000000
vn 0.000000 1.000000 0.000000
vn 0.000000 1.000000 0.000000
vn 0.000000 1.000000 0.000000
vn 0.000000 1.000000 0.000000
vn 0.000000 1.000000 0.000000
vn -0.005083 0.999987 0.000903
vn -0.005381 0.999984 0.001678
vn -0.005381 0.999984 0.001678
vn -0.003955 0.999990 -0.002025
vn 0.999586 0.028782 0.000000
vn 0.999737 0.022954 0.000000
vn 0.999754 0.022176 0.000000
vn 0.999754 0.022176 0.000000
vn 0.000056 -0.001494 0.999999
vn -0.000000 0.000000 1.000000
vn -0.000000 0.000000 1.000000
vn 0.000055 -0.001464 0.999999
vn -0.997209 0.071629 -0.021049
vn -0.997209 0.071629 -0.021049
vn -0.997209 0.071629 -0.021049
vn -0.997209 0.071629 -0.021049
vn 0.999737 0.022954 0.000000
vn 0.999586 0.028782 0.000000
vn 0.715668 0.698441 -0.000001
vn 0.715671 0.698438 -0.000002
vn -0.000000 -0.097905 0.995196
vn -0.001615 -0.097763 0.995209
vn 0.000141 0.490240 0.871588
vn -0.000000 0.488844 0.872371
vn 0.005388 0.999984 0.001680
vn 0.005680 0.999983 0.001190
vn 0.006752 0.999977 -0.000608
vn 0.005388 0.999984 0.001680
vn -0.999754 0.022176 -0.000000
vn -0.999645 0.026630 -0.000000
vn -0.999754 0.022176 -0.000000
vn -0.999754 0.022176 -0.000000
vn 0.997200 0.071739 -0.021094
vn 0.997200 0.071739 -0.021094
vn 0.997200 0.071739 -0.021094
vn 0.997200 0.071739 -0.021094
vn -0.999054 0.043423 0.002372
vn -0.999054 0.043423 0.002372
vn -0.715665 0.698443 -0.000000
vn -0.715665 0.698443 -0.000000
vn -0.000536 -0.097626 0.995223
vn 0.011893 -0.096344 0.995277
vn 0.003915 0.488466 0.872574
vn 0.000586 0.490279 0.871565
vn -0.001615 -0.097763 0.995209
vn -0.000536 -0.097626 0.995223
vn 0.000586 0.490279 0.871565
vn 0.000141 0.490240 0.871588
vn 0.000016 0.999773 -0.021285
vn 0.000016 0.999773 -0.021285
vn 0.000016 0.999773 -0.021285
vn 0.000016 0.999773 -0.021285
vn -0.003669 0.999990 -0.002766
vn -0.005083 0.999987 0.000903
vn -0.003955 0.999990 -0.002025
vn -0.003669 0.999990 -0.002766
vn 0.999382 0.035163 0.000000
vn 0.999586 0.028782 0.000000
vn 0.999754 0.022176 0.000000
vn 0.999754 0.022176 0.000000
vn 0.999586 0.028782 0.000000
vn 0.999382 0.035163 0.000000
vn 0.715666 0.698443 0.000000
vn 0.715668 0.698441 -0.000001
vn -0.999382 0.035161 -0.000000
vn -0.999645 0.026630 -0.000000
vn -0.715665 0.698443 -0.000000
vn -0.715665 0.698443 -0.000000
vn -0.999754 0.022176 -0.000000
vn -0.999645 0.026630 -0.000000
vn -0.999382 0.035161 -0.000000
vn -0.999754 0.022176 -0.000000
vn 0.006752 0.999977 -0.000608
vn 0.005680 0.999983 0.001190
vn 0.007046 0.999975 -0.001101
vn 0.007046 0.999975 -0.001101
vn 0.004394 -0.002979 0.999986
vn 0.000056 -0.001494 0.999999
vn 0.000055 -0.001464 0.999999
vn 0.004468 -0.002980 0.999986
vn 0.000218 0.044640 -0.999003
vn 0.000218 0.044640 -0.999003
vn 0.000218 0.044640 -0.999003
vn 0.000218 0.044640 -0.999003
vn 0.995972 -0.089638 -0.002393
vn 0.995972 -0.089638 -0.002393
vn 0.995972 -0.089638 -0.002393
vn 0.995972 -0.089638 -0.002393
vn 0.000084 -0.042151 0.999111
vn 0.000084 -0.042151 0.999111
vn 0.000084 -0.042151 0.999111
vn 0.000084 -0.042151 0.999111
vn -0.995873 -0.090758 -0.000956
vn -0.995873 -0.090758 -0.000956
vn -0.995873 -0.090758 -0.000956
vn -0.995873 -0.090758 -0.000956
vn 0.008746 -0.003001 0.999957
vn 0.004394 -0.002979 0.999986
vn 0.004468 -0.002980 0.999986
vn 0.008746 -0.003001 0.999957
vn -0.002649 0.279418 0.960166
vn -0.002649 0.279418 0.960166
vn -0.002649 0.279418 0.960166
vn -0.002649 0.279418 0.960166
vn 0.488826 0.872331 0.009316
vn 0.488826 0.872331 0.009316
vn 0.488826 0.872331 0.009316
vn 0.488826 0.872331 0.009316
vn 0.002591 0.376087 -0.926581
vn 0.002365 0.374331 -0.927292
vn 0.002358 0.374278 -0.927314
vn 0.002591 0.376087 -0.926581
vn -0.488801 0.872346 0.009256
vn -0.488801 0.872346 0.009256
vn -0.488801 0.872346 0.009256
vn -0.488801 0.872346 0.009256
vn 0.000001 1.000000 0.000000
vn 0.000001 1.000000 0.000000
vn 0.000001 1.000000 0.000000
vn 0.000001 1.000000 0.000000
vn 0.892086 0.451864 0.000872
vn 0.892086 0.451864 0.000872
vn 0.892086 0.451864 0.000872
vn 0.892086 0.451864 0.000872
vn -0.892085 0.451867 0.000866
vn -0.892085 0.451867 0.000866
vn -0.892085 0.451867 0.000866
vn -0.892085 0.451867 0.000866
vn -0.001599 0.169774 0.985482
vn -0.001599 0.169774 0.985482
vn -0.001599 0.169774 0.985482
vn -0.001599 0.169774 0.985482
vn 0.001510 0.367672 -0.929954
vn 0.001510 0.367672 -0.929954
vn 0.002358 0.374278 -0.927314
vn 0.002365 0.374331 -0.927292
vn 0.680291 0.731828 -0.040413
vn 0.680291 0.731828 -0.040413
vn 0.680291 0.731828 -0.040413
vn 0.680291 0.731828 -0.040413
vn -0.680356 0.731770 -0.040341
vn -0.680356 0.731770 -0.040341
vn -0.680356 0.731770 -0.040341
vn -0.680356 0.731770 -0.040341
vn 0.000397 0.003391 -0.999994
vn 0.000397 -0.001113 -0.999999
vn 0.001196 0.000752 -0.999999
vn 0.001217 0.001483 -0.999998
vn 0.000001 0.239177 -0.970976
vn 0.008854 0.317901 -0.948083
vn -0.008843 0.317887 -0.948087
vn 0.000000 0.239175 -0.970976
vn -0.000001 0.000000 -1.000000
vn 0.000000 0.000000 -1.000000
vn 0.012967 0.110054 -0.993841
vn -0.013300 0.112873 -0.993520
vn -0.001045 0.004829 -0.999988
vn -0.000236 0.004897 -0.999988
vn -0.000514 0.005225 -0.999986
vn -0.001124 0.000897 -0.999999
vn 0.000397 -0.001113 -0.999999
vn 0.000397 0.003391 -0.999994
vn -0.001074 0.001463 -0.999998
vn 0.000000 0.239175 -0.970976
vn -0.008843 0.317887 -0.948087
vn -0.079076 0.379331 -0.921876
vn 0.000001 0.239177 -0.970976
vn 0.079073 0.379329 -0.921877
vn 0.008854 0.317901 -0.948083
vn -0.000001 0.000000 -1.000000
vn 0.000000 0.000000 -1.000000
vn 0.000000 0.000000 -1.000000
vn 0.000000 0.000000 -1.000000
vn -0.013300 0.112873 -0.993520
vn -0.001045 0.004829 -0.999988
vn -0.013300 0.112873 -0.993520
s off
g Ice_Throne:Ice_Throne
usemtl initialShadingGroup
f 9/1/1 10/2/2 15/3/3 16/4/4
f 10/2/5 9/5/6 12/6/7 11/7/8
f 11/7/9 12/6/10 14/8/11 13/9/12
f 13/9/13 14/8/14 16/10/15 15/3/16
f 10/2/17 11/7/18 13/9/19 15/3/20
f 5/11/21 6/12/22 12/6/23 9/5/24
f 6/13/25 7/14/26 14/8/27 12/6/28
f 7/15/29 8/16/30 16/10/31 14/8/32
f 8/17/33 5/18/34 9/1/35 16/4/36
f 17/19/37 18/20/38 24/21/39 23/22/40
f 18/20/41 17/23/42 19/24/43 20/25/44
f 20/25/45 19/24/46 21/26/47 22/27/48
f 22/27/49 21/26/50 23/28/51 24/21/52
f 1/29/53 2/30/54 19/24/55 17/23/56
f 2/31/57 3/32/58 21/26/59 19/24/60
f 3/33/61 4/34/62 23/28/63 21/26/64
f 4/35/65 1/36/66 17/19/67 23/22/68
f 18/20/69 20/25/70 6/37/71 5/38/72
f 20/25/73 22/27/74 7/39/75 6/37/76
f 22/27/77 24/21/78 8/40/79 7/39/80
f 24/21/81 18/20/82 5/38/83 8/40/84
f 40/41/85 27/42/86 29/43/87 39/44/88
f 41/45/89 30/46/90 27/42/91 40/41/92
f 25/47/93 31/48/94 26/49/95 28/50/96
f 39/51/97 29/52/98 69/53/99 72/54/100
f 30/46/101 41/45/102 55/55/103 56/56/104
f 31/48/105 25/47/106 53/57/107 54/58/108
f 33/59/109 43/60/110 44/61/111 35/62/112
f 38/63/113 42/64/114 43/60/115 33/59/116
f 35/65/117 44/66/118 67/67/119 66/68/120
f 42/64/121 38/63/122 49/69/123 50/70/124
f 32/71/125 37/72/126 51/73/127 52/74/128
f 25/47/129 32/71/130 52/74/131 53/57/132
f 71/75/133 70/76/134 65/77/135 68/78/136
f 26/79/137 40/41/138 39/44/139 28/80/140
f 31/81/141 41/45/142 40/41/143 26/79/144
f 41/45/145 31/81/146 54/82/147 55/55/148
f 37/83/149 42/64/150 50/70/151 51/84/152
f 43/60/153 42/64/154 37/83/155 34/85/156
f 44/61/157 43/60/158 34/85/159 36/86/160
f 32/71/161 25/47/162 28/50/163 36/87/164
f 48/88/165 45/89/166 39/90/167 44/91/168
f 39/90/169 45/89/170 46/92/171 28/93/172
f 46/94/173 47/95/174 36/87/175 28/50/176
f 47/96/177 48/88/178 44/91/179 36/97/180
f 37/72/181 32/71/182 36/87/183 34/98/184
f 57/99/185 58/100/186 63/101/187 64/102/188
f 58/103/189 57/104/190 60/105/191 59/106/192
f 59/106/193 60/105/194 61/107/195 62/108/196
f 62/108/197 61/107/198 64/109/199 63/110/200
f 58/103/201 59/106/202 62/108/203 63/110/204
f 46/92/205 45/89/206 60/105/207 57/111/208
f 48/88/209 47/96/210 64/112/211 61/107/212
f 47/95/213 46/94/214 57/99/215 64/102/216
f 45/89/217 48/88/218 61/107/219 60/105/220
f 65/113/221 66/68/222 67/67/223 68/114/224
f 69/53/225 70/115/226 71/116/227 72/54/228
f 67/117/229 72/118/230 71/75/231 68/78/232
f 70/76/233 56/119/234 49/120/235 65/77/236
f 69/121/237 30/122/238 70/76/239
f 66/123/240 38/124/241 33/125/242 35/126/243
f 39/90/244 72/118/245 67/117/246 44/91/247
f 65/77/248 49/120/249 38/124/250
f 70/76/251 30/122/252 56/119/253
f 69/121/254 29/127/255 27/128/256 30/122/257
f 65/77/258 38/124/259 66/123/260
